/* XPM */
static char * south_xpm[] = {
"64 64 262 2",
"  	c #580058",
". 	c #400040",
"+ 	c #6C0070",
"@ 	c #840084",
"# 	c #6C4824",
"$ 	c #500050",
"% 	c #5C4020",
"& 	c #9C009C",
"* 	c #543C1C",
"= 	c #480048",
"- 	c #403018",
"; 	c #483818",
"> 	c #744C28",
", 	c #80502C",
"' 	c #382C14",
") 	c #B400B4",
"! 	c #640067",
"~ 	c #58005C",
"{ 	c #490049",
"] 	c #372B13",
"^ 	c #6B4724",
"/ 	c #473216",
"( 	c #450045",
"_ 	c #4E004E",
": 	c #4A004A",
"< 	c #550055",
"[ 	c #453116",
"} 	c #710071",
"| 	c #800080",
"1 	c #850085",
"2 	c #950095",
"3 	c #5A3B1D",
"4 	c #820082",
"5 	c #3F003F",
"6 	c #470047",
"7 	c #68006C",
"8 	c #2B220E",
"9 	c #040004",
"0 	c #290029",
"a 	c #370039",
"b 	c #000000",
"c 	c #2D230F",
"d 	c #523B1B",
"e 	c #3D003D",
"f 	c #0D0702",
"g 	c #240024",
"h 	c #350035",
"i 	c #473718",
"j 	c #030003",
"k 	c #332612",
"l 	c #3C2D16",
"m 	c #4E3719",
"n 	c #583A1C",
"o 	c #510051",
"p 	c #440044",
"q 	c #020100",
"r 	c #593B1C",
"s 	c #7C007C",
"t 	c #0C000C",
"u 	c #1C001C",
"v 	c #110011",
"w 	c #520052",
"x 	c #3B003D",
"y 	c #400042",
"z 	c #570057",
"A 	c #2C220E",
"B 	c #34280F",
"C 	c #130013",
"D 	c #3D2F13",
"E 	c #533B1B",
"F 	c #332512",
"G 	c #3B2C16",
"H 	c #3B2C15",
"I 	c #630067",
"J 	c #0F000F",
"K 	c #4A3318",
"L 	c #0D0602",
"M 	c #5E3D1F",
"N 	c #6B006F",
"O 	c #0A000A",
"P 	c #430043",
"Q 	c #610061",
"R 	c #150015",
"S 	c #3E003E",
"T 	c #57005B",
"U 	c #23190A",
"V 	c #0B000B",
"W 	c #422D15",
"X 	c #6A4723",
"Y 	c #432F15",
"Z 	c #4F004F",
"` 	c #430045",
" .	c #37260F",
"..	c #34210D",
"+.	c #410041",
"@.	c #020002",
"#.	c #6F006F",
"$.	c #410044",
"%.	c #1B001B",
"&.	c #060301",
"*.	c #53391C",
"=.	c #460046",
"-.	c #280028",
";.	c #48004B",
">.	c #6B006B",
",.	c #271C0C",
"'.	c #320032",
").	c #3D2B12",
"!.	c #392C12",
"~.	c #433416",
"{.	c #170F05",
"].	c #4B3518",
"^.	c #6E006E",
"/.	c #5A3B1C",
"(.	c #400043",
"_.	c #443516",
":.	c #610064",
"<.	c #5C005F",
"[.	c #620062",
"}.	c #372610",
"|.	c #423315",
"1.	c #0D0802",
"2.	c #4E381A",
"3.	c #170019",
"4.	c #3E2E17",
"5.	c #50391A",
"6.	c #674522",
"7.	c #54371A",
"8.	c #180018",
"9.	c #530053",
"0.	c #3A2C12",
"a.	c #4D004D",
"b.	c #2A002A",
"c.	c #360036",
"d.	c #830083",
"e.	c #18001A",
"f.	c #5C0060",
"g.	c #520055",
"h.	c #0B0602",
"i.	c #130D03",
"j.	c #453015",
"k.	c #120012",
"l.	c #4B004B",
"m.	c #453517",
"n.	c #040201",
"o.	c #3C2F13",
"p.	c #310031",
"q.	c #5B005E",
"r.	c #5E3E1E",
"s.	c #4C004C",
"t.	c #120B03",
"u.	c #463617",
"v.	c #640068",
"w.	c #58005B",
"x.	c #7F007F",
"y.	c #7A007A",
"z.	c #59005D",
"A.	c #6A006E",
"B.	c #3A2D12",
"C.	c #420042",
"D.	c #342712",
"E.	c #680068",
"F.	c #600064",
"G.	c #3F3014",
"H.	c #560056",
"I.	c #720072",
"J.	c #66006A",
"K.	c #3E3014",
"L.	c #4B3319",
"M.	c #990099",
"N.	c #7D007D",
"O.	c #4C3519",
"P.	c #060006",
"Q.	c #29002A",
"R.	c #220022",
"S.	c #650069",
"T.	c #493218",
"U.	c #2C002C",
"V.	c #300030",
"W.	c #260026",
"X.	c #221907",
"Y.	c #010001",
"Z.	c #330035",
"`.	c #310033",
" +	c #3A003A",
".+	c #3F2F18",
"++	c #030200",
"@+	c #3C003E",
"#+	c #2B002B",
"$+	c #010100",
"%+	c #231A08",
"&+	c #261C09",
"*+	c #2D1E0C",
"=+	c #360038",
"-+	c #6D006D",
";+	c #300032",
">+	c #4C3419",
",+	c #0F0010",
"'+	c #2D1E0B",
")+	c #330033",
"!+	c #090009",
"~+	c #7B007B",
"{+	c #060401",
"]+	c #28002A",
"^+	c #3C003C",
"/+	c #3B2D12",
"(+	c #5F0062",
"_+	c #5A005E",
":+	c #230025",
"<+	c #390039",
"[+	c #3C2A12",
"}+	c #380038",
"|+	c #340034",
"1+	c #250025",
"2+	c #211807",
"3+	c #49004C",
"4+	c #210023",
"5+	c #670067",
"6+	c #550058",
"7+	c #3E0041",
"8+	c #4E0051",
"9+	c #2F230D",
"0+	c #1F001F",
"a+	c #2E230D",
"b+	c #510054",
"c+	c #050005",
"d+	c #1F0020",
"e+	c #0E000E",
"f+	c #810081",
"g+	c #4B004E",
"h+	c #3B003E",
"i+	c #2D002D",
"j+	c #370037",
"k+	c #270029",
"l+	c #040301",
"m+	c #0B0702",
"n+	c #403114",
"o+	c #070007",
"p+	c #760076",
"q+	c #69006D",
"r+	c #540054",
"s+	c #453516",
"t+	c #0D000E",
"u+	c #392B15",
"v+	c #050301",
"w+	c #100010",
"x+	c #67006B",
"y+	c #0D000D",
"z+	c #200020",
"A+	c #4E361A",
"B+	c #130B03",
"C+	c #210021",
"D+	c #5E0061",
"E+	c #030201",
"F+	c #5F0063",
"G+	c #150016",
"H+	c #5E0062",
"I+	c #5B3F20",
"J+	c #646464",
"K+	c #484848",
"L+	c #383838",
"M+	c #545454",
"                . . . . . . . . . . . . .     + @ @ +   . . . . . . . . .   + + + + + + . . . . . . . +   @ +   . . . . . + + + ",
"# # # # # @ @ +       . . . . . . . . . + @ + @ @ @ @ +   $ . . . . . .   + % # # # & @ + . . . . .     + + @ +   . . . + @ @ % ",
"# # # # # # @ @ +       . . . . . . .   + + @ + @ @ @ + $   $ $ . . $     % % % % # # & @   $ . .   + + +   + +   . + @ @ @ % # ",
"  * * # # # # @ +     $ $ = $ $ = $ $       + + @ + @ +   $     $ $ $   + % + + @ % # & @   $ $ = .     + +           + @ % % % ",
"+ *   - # # # @ + $ $ $ ; ; * * % % % # % %     + @ +     + @ % % %   $ + # @ +   + @ @ +     $ $ = = $             + @ + ; % @ ",
"@ * + - % # + @ + $ $ ; % ; % % % # # # # # % ; ; +     + @ % # # # %   $ * + @ @ + @ +       + + @ @ @ @ @ + +   + + @ @ ; % @ ",
"+ * @ - % # @ +   $ ; % - - * - * * % # # # > # # ; -   + @ % * * # # %   - + + @   +     + + @ @ + + # @ @ @ @ + @ + @ + % @ + ",
"  * @ - % # @   $ ; - %     * . ; * ; # > > > > > # * -   + *     * % #   ;   +         + @ + + +   + % # @ > % @ + + + @ % @ @ ",
"$ * + - * % + $ $ ;   * + + *   ; . ; # > > , , > > # - + @ ; + @   % % + % + +     +   + +         + * % # > > % @ +   + % @ + ",
"$ * @ - * %   $   ; + * @ @ *   -   - % # > > , , ; * # - + - @ @ + % %   * + + + +           +     + * % % # > > @ @ +   % +   ",
"$   + - *   $   - ; + * * @ @       - * % # # > , + # * - $ - + + @   ; $ ; +       ; * % % % + +   + ; * % % # > & @ + + -     ",
"$   $ - * $   + - ; * * * * @   @ - * * * % # # , + ; * - = - +   @ + ; $         + % # # # # % +   + ; ; ; % % > & @ @ + -     ",
"= $ $ - *   + + - ; * ; ; * @ @ - * * +   * % # # @ ; *   = = $ $ $ $ - = = $   + @ # % + % # #   +   - + - ; % + & & @ + -     ",
"= = $ $ $   @ + - ; @ - - ; # % - * + @ +   * % # @ ; * $   $ $ $   $ $ = . . $ + @ % @ + + % # % $ $ - $ - % # # # @ & + -     ",
"= = $ $   + @ + - ; + + + - * # % # @ @ @ + *   # @ ; ; $ $ + @ @ +     $ = = $ + @ % + @   % # % $ = ' + + + + % # # @ +       ",
"= = = = $ + + - ; +   + @ + - * # # # * ;   * @ # @   ; = $ + + + +   ; ; ;   =   + *   @   % # % $ . ' @ & & @ + % # @ +       ",
"= = = = $ + - ; ; @   + + - * # # # # # # ; * @ # @   ; = =   +   ; % % # # % $ $ $ ;   +   * @ # $ . ' + + @ & @ + # @ +       ",
"  $ = = $ - - ; + + + @ + - * * * * # # # # * @   @ + - = = +     % # , , , , #   $ -   +   ; @ # $ . ' .     @ & + # + +       ",
"  $ $ $ . $ - + @     + + - * ' * ' * * # # *     + + - = $     * # % % % % # , @ $ $   + @ + @ @ $ = '   @ +   & + # + +       ",
"+     $ = $ - + @   +   + ' *   *   ' ; * # * *   @ + - $   - ; * % & @ & ) + % @   $ $   + @ @ +   $ '   + @   + @ + +         ",
"+ + + + $ $ ; + +   +   + ' * ! = ~ { ] * ^ / ( _ + + - : < ; [ * @ * } | 1 2 2 3 4   : 5 6 7 + @ +   + @ + +     @ +     + + + ",
"# > > @ +   ;   + $   +     8 9 0 a b c d e f g 9 h + i j k l b m - [ b n : o p q r s t g u v w     + @ +     +   + +   + @ @ # ",
"# # > > @ @ * ; $ $ $   +   x y   z b A B C m + : b D E b F G b H I J b K # # # L M # 4 + N O P $ . .     @ +         + @ % # # ",
"# # > > # # % ; . = $     + Q R S 5 b T U 5 + +   V W X b Y G b Z h ` v Y  ...+.@.M # #.$.%.&.*.% . .   + @ @ @ +     + ; # % % ",
"% @ @ @ > > # % $ $ . = + @ + =.-.;.b >.,.'.+ + N &.).E b !.~.b {.g 4 v F ].r ^.O M /.b (.p _.* % * . $ + @ @ @ + + @ + ; * * % ",
"+ + + @ & > > # +   = . . + { @.:.4 b T <.b [.G }.&.|.E b F G b 1.2.@ 3.F 4.5.6.L M 7.8.I 9.0.a.+ # $ .   + @ @ @ + + - - ;     ",
"  +   @ & & > > @ + = . . = b.c.+ d.e.f.@ g.h.b i.j.* N k.l.m.n.o.* @ p.q.e.b b O r.X s.9 b t.q.  # # # ;   + + +   + ; ;       ",
"    # > > > > # > @   = = = Z $   + z   + - - u.* + * & d.* * i - - * ^ # # +   + # @ @ N a.-       % * * ;     + @   * * @ @ @ ",
"+ # > > % % % > # @ +     % % % $   $ $   - ; * * + * @ @ * ; + + - * & & & & & @ # @ +   $ + @ + + % + + ; $ $   +   % % + +   ",
"@ # # % ) ) @ % # & @ +     % % % $ $ $   - ; * * + * +   - @ &   - * @ @ @ & & & @ @   $ =   + @ @ ; +   $ $ $ $   @ % # @ +   ",
"% # & & @ @ ) @ # & @ @ @ @ @ % % $ ;   + - ; * *   *     - @ @ + - * % + @ @ & & @ @   = = - ; ; ; - + +       +   + % % + @ + ",
"% % & & + + ) @ # & @ + + @ @ @ % $ $   + - ; * * + + +   - + + & + * - * # # % @ & @ + - - * + @ @ & & @ +   + @ + @ * * + @ + ",
"* * @ @   + & @ # @ @   + @ @ + ; $ =   + - ; * * @ @ @ +   @ + @ & + * ; * % # % @ @ @ $ ; @ % % % & ) ) @     +   @ ; ; + @   ",
"; ; ; +   + & @ # @ @ +   + + + ; $ =   + - ; * * @ @ @ + + +   @ & ; * ; = - % # @ @ @   + % % % % % & ) & +   + + + * * @ +   ",
"; ; ; v.5 w.x.+ % y.z.= { A.: = B.C.6   v.D.B.D.d   N } E.F.  = + @ ; G.H.: +.B.3 A.x.I.  @ ; J.K.o.L.L.d.M.@   N.} ~ O.X @ +   ",
"* * l.P.0 Q.R.S.T.P.0 U.b = V.W.X.Y.+.. 9 Z.U.b j.H.`.%. +P.h =   + .+++6 @+#+R.$+= } t 9.+ ; l.%+&+*+=+9 -+@ e P.p.;+b >+@   @ ",
"% %   z + N ,+P '+)+$ Z b . $ $ ; !+6 #+)++ z b Y . !+~++ : b l.= $ .+b 6 + + = {+T @ ]+^+  ~.9 /+; ; + C >.(+b =.+ A.b !.@     ",
"# # + _+$.:+V <+[+C }+5 b . |+1+2+@.T 3+4+5+6+b T 7+-.  @   V 8+= = .+b <+ +0 u $+T + p v 6 9+0+; a+2++.j >.b+c+$   z b !.+     ",
"# # C.b )+S e $ * U.d+;.b T _ C./+e+>.f+g+h+i+b T j+k++   z 9 .   = .+b <+_ z.|+l+6   _ e+h m+e   n+z.^.O T ( Y._ $ Z b T @     ",
"% % p.o+ +^+ +a.{ @.p+4 b >.q+r+s+t+>.@ +   .+b T : b [.v. +P.C.p  +u+b >.< r+( v+. $ = j+b w+_   u.r+x+t+6 s.y+i+6 o b 6 +     ",
"; * 5 R.@.b %.q.x 9.@ d.z+A+B+b b P.a.+ @   - k.l.  g.C+b 4+= = w+b b P.D+y+b b E+a.$ $ r+e+8+@ @ z+b b P.=.  F+b.G+b O H+      ",
"; ; . = 6 < + @ N + @ % I+# # % % ; @   $   $ z +     + | +     = . ' = = = = = '     +   d.@ @ @ @ @ @ +   + @ + @ # # @ +     ",
"- - = =   + @ @ + @ + *   * % # % @ +     $ = $   $ $ $     + +   . - = = = = $ ' $ + @ + + * * # # @ @ + +   + + * % % # +   $ ",
"' - $   + @ + @ @ @ + ; . ; * # # & @ +   $ = = $ $     +         $ ; $ $ $ $ $ - =   +     * * # # # @ @ @ +     * + + % @   $ ",
". '   +   +   + @ +     .   ; @ * & @ +   $ $ $     + + +       @ @ % * * * *   ; . $       ; * % % # # # @ @ + @ * @ + * @   $ ",
". ' + @ +     + @ @ +   . . ; @ * & # @ +       + + @ @ +     @ & & # % % # # * ; . $   +   - *     # @ % @ @ + + *   + * +   $ ",
". ' + @ + + + @ & % ;     .   + ; @ # # @ +   + @ + @ @ + ; # & ) @ # % # > , # * = $ + @ + -     $ @   * + @ @ + @ @ + ;     $ ",
"    + + + @ + @ > # % ; ;     + ; @ # # # +   + + @ + @ ; # % @ & + # # # > > , % $ $ + @ - & @ + $   @   + @ @ + @ @ + ;   $ = ",
"- + @ + + @ + + % > # % % ; ;   # # # # # # + + @ + @ + % % @ & @ # # # % # # > #       + - + & + + $     + @ +   + + + - $ = $ ",
"- + @ + + +     ; % > > > @ @ # % % % % # # @ + + + + ; % @ & @ # # # % * # * % # #   + @ + - + +   +       +         $ - $ = $ ",
"- + @ + @ @ +   ; %   ; % + +   $ $ = % % # # +     $ ; % @ @ + % % % * ; % % * # @     +   - . = $   $ + +     $ $ $ = ' = . = ",
"    +   + @ @ + ; % + ; % @ @ +     $ * + % #     $ = ; % @ # % ; ; * * % ; % # # # # ;   $ - = = + +       $ $ = = . = ' . . . ",
"-     ; % * @ @ ; + @ @ % - ; % % ;   ; + @ *   $ = ; % % % % ; ; ; ; ; % % ; % ; * * # ; ' - $ $               $ $ = . . . . = ",
"-   ; % % % * + ; + + @ % - ; * * % + ; @ + ;   - ; % % * * + +     = ; ; % ; ; ' - * * # ; -   + @ @ @ @ @ + +     $ = ' . . $ ",
"$ $ ; * * + + @ -     + % - ; = ; + @ ; +   - = ; * ; ; ; ;   + + @   - ; ; = - ' = - * % ;   + @ # # # # # @ @ @ +   $ = = . = ",
"$ $ ; ; ; +   + -   +     - - = ; + @ -   = - $ ; * ' ' - - @ @ @ @ + - ; ; = - ' = = - % ;   @ # * * * * # % & & @ + $ = = = = ",
"$ $ ; ; ;       -   @     ; ; = - + + - = $     - ; = ' - ' @ @ @ +   -   = = - = = = - % ;   + * * + + +   # & & @ +   = = = = ",
"  * * %     +   -       - * * $ - $ $ - = $   $ ' - $ = ' ' + + @ +   -   @   - @     @ @ '   + * + @ + @ + *   & @ +   $ = = $ ",
"* # # , %     + -     - % + %   $ $   - $ = + = ' - + $ ' = =   +   + -       -     @ @   ' + + ; @ + @ * * - * * @ +   $ = = $ ",
"@ % % # , %     -   - - + @ * @   + + -   $ $ = ' -   + ' =       + + - - - - -           ' @ + ; + + + + + @ + # # # * $ = = $ ",
"- - + % , # - - - - - - - - -   + @ @ @ +   + = ' -   - ' - - - - - ; ; ; ; ; ; -   @     - - - - - - @ @ + + # % % # # + $ $ - ",
"- + @ ; % , # % % % * * * * ; ; ; @ @ @ + + @ + ' - - - ; ; ; * * * % % % % @ % - - - ; ; ; ; ; ; ; ; - +   @ * @ + $ # @ - - - ",
"- - - - ; % # # # # # # % * ; ; ; - - - - ; ; ; ; * * % % % % % # # > , > # % ; ; ; ; ; % % % # # % % ; - - - ;   @ + % - - - - ",
"J+K+L+- - - - - - - - - - - - L+K+M+M+K+L+- - - - - - - - - - - - - - - - - - - L+M+J+J+K+L+- - - - - - - - - - - - - - - L+K+J+"};
